<?xml version="1.0" encoding="utf-8"?>
<!-- Svg Vector Icons : http://www.onlinewebfonts.com/icon -->
<!DOCTYPE svg PUBLIC "-//W3C//DTD SVG 1.1//EN" "http://www.w3.org/Graphics/SVG/1.1/DTD/svg11.dtd">
<svg version="1.1" xmlns="http://www.w3.org/2000/svg" xmlns:xlink="http://www.w3.org/1999/xlink" x="0px" y="0px" viewBox="0 0 1000 1000" enable-background="new 0 0 1000 1000" xml:space="preserve">
<metadata> Svg Vector Icons : http://www.onlinewebfonts.com/icon </metadata>
<g><g transform="translate(0.000000,512.000000) scale(0.100000,-0.100000)"><path d="M8778.1,4973.5c-72.8-36.4-448.5-402.5-1627.1-1581.1L5617.8,1859.1l561.5-561.5L6738.9,738l1542.8,1542.8c1188.2,1190.2,1550.5,1562,1579.2,1629c47.9,103.5,51.7,224.2,11.5,322c-40.2,95.8-643.9,705.3-747.4,753.2C9017.7,5034.8,8893.1,5031,8778.1,4973.5z"/><path d="M5263.2,1358.9c-187.8-170.6-565.4-444.6-835.6-607.5c-258.7-155.2-624.8-341.1-1847.5-937.2C1930.4-503.9,1683.1-640,1345.8-868.1C736.4-1280.1,299.4-1874.2,142.2-2504.8c-34.5-134.2-42.2-224.2-42.2-446.5c-1.9-300.9,30.7-458.1,136.1-693.8l49.8-111.2l-49.8-109.2c-113.1-258.7-139.9-483-72.8-628.6c128.4-279.8,435.1-333.5,850.9-149.5l109.2,49.8l111.2-49.8c233.8-105.4,394.8-136.1,684.2-136.1c153.3,0,316.2,9.6,383.3,24.9c488.7,109.2,921.8,358.4,1324.3,758.9c360.3,360.3,594.1,728.3,1048.3,1657.8c826,1690.4,918,1860.9,1209.3,2274.9c78.6,113.1,212.7,285.6,297.1,381.4l151.4,174.4l-481,481l-483,481L5263.2,1358.9z M4943.1,617.2c-400.6-345-873.9-732.1-1500.6-1230.4C2171.9-1621.3,1648.6-2071.6,1244.2-2502.9c-237.7-254.9-529-597.9-634.4-749.4c-40.3-55.6-76.7-101.6-84.3-101.6c-26.8,0-61.3,226.1-61.3,402.5c0,594.1,362.2,1234.2,950.6,1678.9c283.6,212.7,617.1,404.4,1241.9,711C4372,281.8,4534.9,366.2,4879.9,600C5004.5,684.3,5027.5,690.1,4943.1,617.2z M5240.2,331.7C4910.6-42.1,4590.5-431.1,3960-1226.5C3040-2386,2643.3-2851.7,2235.1-3256.1c-323.9-320-711-643.9-1000.4-835.6l-109.2-70.9l-76.7,59.4c-86.2,67.1-327.7,323.9-327.7,346.9c0,57.5,392.9,563.5,705.3,906.5c425.5,467.6,919.9,895,2227,1929.9c688,544.3,1305.1,1054.1,1600.3,1318.6C5349.4,485,5428,554,5431.9,555.9C5435.7,555.9,5349.4,454.3,5240.2,331.7z M5418.4-90c-191.7-304.7-335.4-571.1-607.5-1126.9c-619-1270.7-780-1588.8-923.7-1826.4c-381.4-624.8-701.5-941-1201.7-1184.4c-268.3-130.3-490.6-185.9-747.4-185.9c-184-1.9-412.1,32.6-412.1,59.4c1.9,7.7,69,63.2,151.4,122.7c619.1,454.2,1241.9,1105.8,2173.3,2274.9C4799.4-766.5,5052.4-454.1,5288.1-176.2c138,159.1,253,291.3,256.8,291.3C5546.8,115.1,5491.3,23.1,5418.4-90z M732.5-4354.2c-42.2-28.8-184-38.3-212.7-15.3c-34.5,28.8-36.4,105.4-7.7,187.8l19.2,59.4l111.2-109.2C707.6-4298.6,744-4346.6,732.5-4354.2z"/></g></g>
</svg>